<svg width="542" height="242" viewBox="0 0 542 242" fill="none" xmlns="http://www.w3.org/2000/svg">
<circle cx="1" cy="1" r="1" fill="#ffffff22"/>
<circle cx="31" cy="1" r="1" fill="#ffffff22"/>
<circle cx="61" cy="1" r="1" fill="#ffffff22"/>
<circle cx="91" cy="1" r="1" fill="#ffffff22"/>
<circle cx="121" cy="1" r="1" fill="#ffffff22"/>
<circle cx="151" cy="1" r="1" fill="#ffffff22"/>
<circle cx="181" cy="1" r="1" fill="#ffffff22"/>
<circle cx="211" cy="1" r="1" fill="#ffffff22"/>
<circle cx="241" cy="1" r="1" fill="#ffffff22"/>
<circle cx="271" cy="1" r="1" fill="#ffffff22"/>
<circle cx="301" cy="1" r="1" fill="#ffffff22"/>
<circle cx="331" cy="1" r="1" fill="#ffffff22"/>
<circle cx="361" cy="1" r="1" fill="#ffffff22"/>
<circle cx="391" cy="1" r="1" fill="#ffffff22"/>
<circle cx="421" cy="1" r="1" fill="#ffffff22"/>
<circle cx="451" cy="1" r="1" fill="#ffffff22"/>
<circle cx="481" cy="1" r="1" fill="#ffffff22"/>
<circle cx="511" cy="1" r="1" fill="#ffffff22"/>
<circle cx="541" cy="1" r="1" fill="#ffffff22"/>
<circle cx="1" cy="31" r="1" fill="#ffffff22"/>
<circle cx="31" cy="31" r="1" fill="#ffffff22"/>
<circle cx="61" cy="31" r="1" fill="#ffffff22"/>
<circle cx="91" cy="31" r="1" fill="#ffffff22"/>
<circle cx="121" cy="31" r="1" fill="#ffffff22"/>
<circle cx="151" cy="31" r="1" fill="#ffffff22"/>
<circle cx="181" cy="31" r="1" fill="#ffffff22"/>
<circle cx="211" cy="31" r="1" fill="#ffffff22"/>
<circle cx="241" cy="31" r="1" fill="#ffffff22"/>
<circle cx="271" cy="31" r="1" fill="#ffffff22"/>
<circle cx="301" cy="31" r="1" fill="#ffffff22"/>
<circle cx="331" cy="31" r="1" fill="#ffffff22"/>
<circle cx="361" cy="31" r="1" fill="#ffffff22"/>
<circle cx="391" cy="31" r="1" fill="#ffffff22"/>
<circle cx="421" cy="31" r="1" fill="#ffffff22"/>
<circle cx="451" cy="31" r="1" fill="#ffffff22"/>
<circle cx="481" cy="31" r="1" fill="#ffffff22"/>
<circle cx="511" cy="31" r="1" fill="#ffffff22"/>
<circle cx="541" cy="31" r="1" fill="#ffffff22"/>
<circle cx="1" cy="61" r="1" fill="#ffffff22"/>
<circle cx="31" cy="61" r="1" fill="#ffffff22"/>
<circle cx="61" cy="61" r="1" fill="#ffffff22"/>
<circle cx="91" cy="61" r="1" fill="#ffffff22"/>
<circle cx="121" cy="61" r="1" fill="#ffffff22"/>
<circle cx="151" cy="61" r="1" fill="#ffffff22"/>
<circle cx="181" cy="61" r="1" fill="#ffffff22"/>
<circle cx="211" cy="61" r="1" fill="#ffffff22"/>
<circle cx="241" cy="61" r="1" fill="#ffffff22"/>
<circle cx="271" cy="61" r="1" fill="#ffffff22"/>
<circle cx="301" cy="61" r="1" fill="#ffffff22"/>
<circle cx="331" cy="61" r="1" fill="#ffffff22"/>
<circle cx="361" cy="61" r="1" fill="#ffffff22"/>
<circle cx="391" cy="61" r="1" fill="#ffffff22"/>
<circle cx="421" cy="61" r="1" fill="#ffffff22"/>
<circle cx="451" cy="61" r="1" fill="#ffffff22"/>
<circle cx="481" cy="61" r="1" fill="#ffffff22"/>
<circle cx="511" cy="61" r="1" fill="#ffffff22"/>
<circle cx="541" cy="61" r="1" fill="#ffffff22"/>
<circle cx="1" cy="91" r="1" fill="#ffffff22"/>
<circle cx="31" cy="91" r="1" fill="#ffffff22"/>
<circle cx="61" cy="91" r="1" fill="#ffffff22"/>
<circle cx="91" cy="91" r="1" fill="#ffffff22"/>
<circle cx="121" cy="91" r="1" fill="#ffffff22"/>
<circle cx="151" cy="91" r="1" fill="#ffffff22"/>
<circle cx="181" cy="91" r="1" fill="#ffffff22"/>
<circle cx="211" cy="91" r="1" fill="#ffffff22"/>
<circle cx="241" cy="91" r="1" fill="#ffffff22"/>
<circle cx="271" cy="91" r="1" fill="#ffffff22"/>
<circle cx="301" cy="91" r="1" fill="#ffffff22"/>
<circle cx="331" cy="91" r="1" fill="#ffffff22"/>
<circle cx="361" cy="91" r="1" fill="#ffffff22"/>
<circle cx="391" cy="91" r="1" fill="#ffffff22"/>
<circle cx="421" cy="91" r="1" fill="#ffffff22"/>
<circle cx="451" cy="91" r="1" fill="#ffffff22"/>
<circle cx="481" cy="91" r="1" fill="#ffffff22"/>
<circle cx="511" cy="91" r="1" fill="#ffffff22"/>
<circle cx="541" cy="91" r="1" fill="#ffffff22"/>
<circle cx="1" cy="121" r="1" fill="#ffffff22"/>
<circle cx="31" cy="121" r="1" fill="#ffffff22"/>
<circle cx="61" cy="121" r="1" fill="#ffffff22"/>
<circle cx="91" cy="121" r="1" fill="#ffffff22"/>
<circle cx="121" cy="121" r="1" fill="#ffffff22"/>
<circle cx="151" cy="121" r="1" fill="#ffffff22"/>
<circle cx="181" cy="121" r="1" fill="#ffffff22"/>
<circle cx="211" cy="121" r="1" fill="#ffffff22"/>
<circle cx="241" cy="121" r="1" fill="#ffffff22"/>
<circle cx="271" cy="121" r="1" fill="#ffffff22"/>
<circle cx="301" cy="121" r="1" fill="#ffffff22"/>
<circle cx="331" cy="121" r="1" fill="#ffffff22"/>
<circle cx="361" cy="121" r="1" fill="#ffffff22"/>
<circle cx="391" cy="121" r="1" fill="#ffffff22"/>
<circle cx="421" cy="121" r="1" fill="#ffffff22"/>
<circle cx="451" cy="121" r="1" fill="#ffffff22"/>
<circle cx="481" cy="121" r="1" fill="#ffffff22"/>
<circle cx="511" cy="121" r="1" fill="#ffffff22"/>
<circle cx="541" cy="121" r="1" fill="#ffffff22"/>
<circle cx="1" cy="151" r="1" fill="#ffffff22"/>
<circle cx="31" cy="151" r="1" fill="#ffffff22"/>
<circle cx="61" cy="151" r="1" fill="#ffffff22"/>
<circle cx="91" cy="151" r="1" fill="#ffffff22"/>
<circle cx="121" cy="151" r="1" fill="#ffffff22"/>
<circle cx="151" cy="151" r="1" fill="#ffffff22"/>
<circle cx="181" cy="151" r="1" fill="#ffffff22"/>
<circle cx="211" cy="151" r="1" fill="#ffffff22"/>
<circle cx="241" cy="151" r="1" fill="#ffffff22"/>
<circle cx="271" cy="151" r="1" fill="#ffffff22"/>
<circle cx="301" cy="151" r="1" fill="#ffffff22"/>
<circle cx="331" cy="151" r="1" fill="#ffffff22"/>
<circle cx="361" cy="151" r="1" fill="#ffffff22"/>
<circle cx="391" cy="151" r="1" fill="#ffffff22"/>
<circle cx="421" cy="151" r="1" fill="#ffffff22"/>
<circle cx="451" cy="151" r="1" fill="#ffffff22"/>
<circle cx="481" cy="151" r="1" fill="#ffffff22"/>
<circle cx="511" cy="151" r="1" fill="#ffffff22"/>
<circle cx="541" cy="151" r="1" fill="#ffffff22"/>
<circle cx="1" cy="181" r="1" fill="#ffffff22"/>
<circle cx="31" cy="181" r="1" fill="#ffffff22"/>
<circle cx="61" cy="181" r="1" fill="#ffffff22"/>
<circle cx="91" cy="181" r="1" fill="#ffffff22"/>
<circle cx="121" cy="181" r="1" fill="#ffffff22"/>
<circle cx="151" cy="181" r="1" fill="#ffffff22"/>
<circle cx="181" cy="181" r="1" fill="#ffffff22"/>
<circle cx="211" cy="181" r="1" fill="#ffffff22"/>
<circle cx="241" cy="181" r="1" fill="#ffffff22"/>
<circle cx="271" cy="181" r="1" fill="#ffffff22"/>
<circle cx="301" cy="181" r="1" fill="#ffffff22"/>
<circle cx="331" cy="181" r="1" fill="#ffffff22"/>
<circle cx="361" cy="181" r="1" fill="#ffffff22"/>
<circle cx="391" cy="181" r="1" fill="#ffffff22"/>
<circle cx="421" cy="181" r="1" fill="#ffffff22"/>
<circle cx="451" cy="181" r="1" fill="#ffffff22"/>
<circle cx="481" cy="181" r="1" fill="#ffffff22"/>
<circle cx="511" cy="181" r="1" fill="#ffffff22"/>
<circle cx="541" cy="181" r="1" fill="#ffffff22"/>
<circle cx="1" cy="211" r="1" fill="#ffffff22"/>
<circle cx="31" cy="211" r="1" fill="#ffffff22"/>
<circle cx="61" cy="211" r="1" fill="#ffffff22"/>
<circle cx="91" cy="211" r="1" fill="#ffffff22"/>
<circle cx="121" cy="211" r="1" fill="#ffffff22"/>
<circle cx="151" cy="211" r="1" fill="#ffffff22"/>
<circle cx="181" cy="211" r="1" fill="#ffffff22"/>
<circle cx="211" cy="211" r="1" fill="#ffffff22"/>
<circle cx="241" cy="211" r="1" fill="#ffffff22"/>
<circle cx="271" cy="211" r="1" fill="#ffffff22"/>
<circle cx="301" cy="211" r="1" fill="#ffffff22"/>
<circle cx="331" cy="211" r="1" fill="#ffffff22"/>
<circle cx="361" cy="211" r="1" fill="#ffffff22"/>
<circle cx="391" cy="211" r="1" fill="#ffffff22"/>
<circle cx="421" cy="211" r="1" fill="#ffffff22"/>
<circle cx="451" cy="211" r="1" fill="#ffffff22"/>
<circle cx="481" cy="211" r="1" fill="#ffffff22"/>
<circle cx="511" cy="211" r="1" fill="#ffffff22"/>
<circle cx="541" cy="211" r="1" fill="#ffffff22"/>
<circle cx="1" cy="241" r="1" fill="#ffffff22"/>
<circle cx="31" cy="241" r="1" fill="#ffffff22"/>
<circle cx="61" cy="241" r="1" fill="#ffffff22"/>
<circle cx="91" cy="241" r="1" fill="#ffffff22"/>
<circle cx="121" cy="241" r="1" fill="#ffffff22"/>
<circle cx="151" cy="241" r="1" fill="#ffffff22"/>
<circle cx="181" cy="241" r="1" fill="#ffffff22"/>
<circle cx="211" cy="241" r="1" fill="#ffffff22"/>
<circle cx="241" cy="241" r="1" fill="#ffffff22"/>
<circle cx="271" cy="241" r="1" fill="#ffffff22"/>
<circle cx="301" cy="241" r="1" fill="#ffffff22"/>
<circle cx="331" cy="241" r="1" fill="#ffffff22"/>
<circle cx="361" cy="241" r="1" fill="#ffffff22"/>
<circle cx="391" cy="241" r="1" fill="#ffffff22"/>
<circle cx="421" cy="241" r="1" fill="#ffffff22"/>
<circle cx="451" cy="241" r="1" fill="#ffffff22"/>
<circle cx="481" cy="241" r="1" fill="#ffffff22"/>
<circle cx="511" cy="241" r="1" fill="#ffffff22"/>
<circle cx="541" cy="241" r="1" fill="#ffffff22"/>
</svg>
