<svg width="50" height="50" viewBox="0 0 35 35" fill="none" xmlns="http://www.w3.org/2000/svg">
    <path fill="currentColor" d="M21.1425 4.57225L19.9886 3.41534C19.1108 2.53531 17.6877 2.53531 16.8099 3.41534L0.658333 19.6083C-0.219444 20.4884 -0.219444 21.9151 0.658333 22.7952L1.81229 23.9521C2.69007 24.8321 4.11321 24.8321 4.99099 23.9521L11.9556 16.9951H21.5458C22.7871 16.9951 23.7935 15.9862 23.7935 14.7417V12.6384C23.7935 11.3939 22.7871 10.385 21.5458 10.385H18.5489L21.1425 7.7591C22.0203 6.87909 22.0203 5.45228 21.1425 4.57225Z"/>
    <path fill="currentColor" d="M30.9036 11.9881L30.9044 11.9874C31.5774 11.3127 32.6684 11.3127 33.3413 11.9874L34.4953 13.1443C35.1682 13.819 35.1682 14.9129 34.4953 15.5876L18.3438 31.7805C17.6708 32.4552 16.5796 32.4552 15.9067 31.7805L14.7527 30.6236C14.0798 29.9489 14.0798 28.8551 14.7527 28.1804L14.7536 28.1795L14.7545 28.1786L17.3483 25.5528L18.2332 24.657H16.9757H13.9788C13.0271 24.657 12.2556 23.8834 12.2556 22.9293V20.8261C12.2556 19.8718 13.0271 19.0985 13.9788 19.0985H23.5689H23.7855L23.939 18.9451L30.9036 11.9881Z"/>
</svg>
